<mxfile host="app.diagrams.net" modified="2023-03-25T20:59:39.983Z" agent="Mozilla/5.0 (Windows NT 10.0; Win64; x64) AppleWebKit/537.36 (KHTML, like Gecko) Chrome/111.0.0.0 Safari/537.36" etag="86gFig40JzMbeReHBu66" version="21.1.1" type="github">
  <diagram name="Domain-model-v0.1" id="5d7acffa-a066-3a61-03fe-96351882024d">
    <mxGraphModel dx="1434" dy="1614" grid="1" gridSize="10" guides="1" tooltips="1" connect="1" arrows="1" fold="1" page="1" pageScale="1" pageWidth="1100" pageHeight="850" background="#ffffff" math="0" shadow="0">
      <root>
        <mxCell id="0" />
        <mxCell id="1" parent="0" />
        <mxCell id="h8cdzkuJ3-BCi8xMZ_TN-5" value="&lt;font color=&quot;#ffffff&quot;&gt;&lt;b&gt;Student&lt;/b&gt;&lt;/font&gt;" style="swimlane;html=1;fontStyle=0;childLayout=stackLayout;horizontal=1;startSize=26;fillColor=#8e0b32;horizontalStack=0;resizeParent=1;resizeLast=0;collapsible=1;marginBottom=0;swimlaneFillColor=#ffffff;align=center;rounded=1;shadow=0;comic=0;labelBackgroundColor=none;strokeWidth=1;fontFamily=Verdana;fontSize=12;strokeColor=#9673a6;" parent="1" vertex="1">
          <mxGeometry x="695" y="-650" width="160" height="84" as="geometry" />
        </mxCell>
        <mxCell id="h8cdzkuJ3-BCi8xMZ_TN-8" value="&lt;font color=&quot;#ffffff&quot;&gt;&lt;b&gt;Settings&lt;/b&gt;&lt;/font&gt;" style="swimlane;html=1;fontStyle=0;childLayout=stackLayout;horizontal=1;startSize=26;fillColor=#8e0b32;horizontalStack=0;resizeParent=1;resizeLast=0;collapsible=1;marginBottom=0;swimlaneFillColor=#ffffff;align=center;rounded=1;shadow=0;comic=0;labelBackgroundColor=none;strokeWidth=1;fontFamily=Verdana;fontSize=12;strokeColor=#9673a6;" parent="1" vertex="1">
          <mxGeometry x="935" y="-710" width="160" height="84" as="geometry" />
        </mxCell>
        <mxCell id="h8cdzkuJ3-BCi8xMZ_TN-47" style="edgeStyle=orthogonalEdgeStyle;rounded=0;orthogonalLoop=1;jettySize=auto;html=1;exitX=0;exitY=0.5;exitDx=0;exitDy=0;entryX=1;entryY=0.5;entryDx=0;entryDy=0;" parent="1" source="h8cdzkuJ3-BCi8xMZ_TN-9" target="h8cdzkuJ3-BCi8xMZ_TN-12" edge="1">
          <mxGeometry relative="1" as="geometry" />
        </mxCell>
        <mxCell id="h8cdzkuJ3-BCi8xMZ_TN-50" style="edgeStyle=orthogonalEdgeStyle;rounded=0;orthogonalLoop=1;jettySize=auto;html=1;exitX=0;exitY=0.75;exitDx=0;exitDy=0;entryX=1;entryY=0.5;entryDx=0;entryDy=0;" parent="1" source="h8cdzkuJ3-BCi8xMZ_TN-9" target="h8cdzkuJ3-BCi8xMZ_TN-19" edge="1">
          <mxGeometry relative="1" as="geometry" />
        </mxCell>
        <mxCell id="h8cdzkuJ3-BCi8xMZ_TN-59" style="edgeStyle=orthogonalEdgeStyle;rounded=0;orthogonalLoop=1;jettySize=auto;html=1;exitX=0.75;exitY=1;exitDx=0;exitDy=0;entryX=0;entryY=0.5;entryDx=0;entryDy=0;" parent="1" source="h8cdzkuJ3-BCi8xMZ_TN-9" target="h8cdzkuJ3-BCi8xMZ_TN-15" edge="1">
          <mxGeometry relative="1" as="geometry" />
        </mxCell>
        <mxCell id="h8cdzkuJ3-BCi8xMZ_TN-68" style="edgeStyle=orthogonalEdgeStyle;rounded=0;orthogonalLoop=1;jettySize=auto;html=1;exitX=0.25;exitY=1;exitDx=0;exitDy=0;entryX=0.5;entryY=0;entryDx=0;entryDy=0;" parent="1" source="h8cdzkuJ3-BCi8xMZ_TN-9" target="h8cdzkuJ3-BCi8xMZ_TN-13" edge="1">
          <mxGeometry relative="1" as="geometry" />
        </mxCell>
        <mxCell id="h8cdzkuJ3-BCi8xMZ_TN-80" style="edgeStyle=orthogonalEdgeStyle;rounded=0;orthogonalLoop=1;jettySize=auto;html=1;exitX=0.5;exitY=0;exitDx=0;exitDy=0;entryX=0.5;entryY=1;entryDx=0;entryDy=0;" parent="1" source="h8cdzkuJ3-BCi8xMZ_TN-9" target="h8cdzkuJ3-BCi8xMZ_TN-18" edge="1">
          <mxGeometry relative="1" as="geometry" />
        </mxCell>
        <mxCell id="moBxXI_NNbaJDxCuOQPC-1" style="edgeStyle=orthogonalEdgeStyle;rounded=0;orthogonalLoop=1;jettySize=auto;html=1;exitX=0.5;exitY=1;exitDx=0;exitDy=0;entryX=0;entryY=0.25;entryDx=0;entryDy=0;" parent="1" source="h8cdzkuJ3-BCi8xMZ_TN-9" target="h8cdzkuJ3-BCi8xMZ_TN-14" edge="1">
          <mxGeometry relative="1" as="geometry" />
        </mxCell>
        <mxCell id="h8cdzkuJ3-BCi8xMZ_TN-9" value="&lt;font color=&quot;#ffffff&quot;&gt;&lt;b&gt;MainMenu&lt;br&gt;&lt;/b&gt;&lt;/font&gt;" style="swimlane;html=1;fontStyle=0;childLayout=stackLayout;horizontal=1;startSize=26;fillColor=#8e0b32;horizontalStack=0;resizeParent=1;resizeLast=0;collapsible=1;marginBottom=0;swimlaneFillColor=#ffffff;align=center;rounded=1;shadow=0;comic=0;labelBackgroundColor=none;strokeWidth=1;fontFamily=Verdana;fontSize=12;strokeColor=#9673a6;" parent="1" vertex="1">
          <mxGeometry x="485" y="-506" width="160" height="84" as="geometry" />
        </mxCell>
        <mxCell id="h8cdzkuJ3-BCi8xMZ_TN-11" value="&lt;font color=&quot;#ffffff&quot;&gt;&lt;b&gt;Profile&lt;/b&gt;&lt;/font&gt;" style="swimlane;html=1;fontStyle=0;childLayout=stackLayout;horizontal=1;startSize=26;fillColor=#8e0b32;horizontalStack=0;resizeParent=1;resizeLast=0;collapsible=1;marginBottom=0;swimlaneFillColor=#ffffff;align=center;rounded=1;shadow=0;comic=0;labelBackgroundColor=none;strokeWidth=1;fontFamily=Verdana;fontSize=12;strokeColor=#9673a6;" parent="1" vertex="1">
          <mxGeometry x="795" y="-826" width="160" height="84" as="geometry" />
        </mxCell>
        <mxCell id="h8cdzkuJ3-BCi8xMZ_TN-12" value="&lt;font color=&quot;#ffffff&quot;&gt;&lt;b&gt;Cafeteria&lt;/b&gt;&lt;/font&gt;" style="swimlane;html=1;fontStyle=0;childLayout=stackLayout;horizontal=1;startSize=26;fillColor=#8e0b32;horizontalStack=0;resizeParent=1;resizeLast=0;collapsible=1;marginBottom=0;swimlaneFillColor=#ffffff;align=center;rounded=1;shadow=0;comic=0;labelBackgroundColor=none;strokeWidth=1;fontFamily=Verdana;fontSize=12;strokeColor=#9673a6;" parent="1" vertex="1">
          <mxGeometry x="284.94" y="-636" width="160" height="84" as="geometry">
            <mxRectangle x="289.94" y="-10" width="100" height="30" as="alternateBounds" />
          </mxGeometry>
        </mxCell>
        <mxCell id="h8cdzkuJ3-BCi8xMZ_TN-13" value="&lt;font color=&quot;#ffffff&quot;&gt;&lt;b&gt;Transportation&lt;/b&gt;&lt;/font&gt;" style="swimlane;html=1;fontStyle=0;childLayout=stackLayout;horizontal=1;startSize=26;fillColor=#8e0b32;horizontalStack=0;resizeParent=1;resizeLast=0;collapsible=1;marginBottom=0;swimlaneFillColor=#ffffff;align=center;rounded=1;shadow=0;comic=0;labelBackgroundColor=none;strokeWidth=1;fontFamily=Verdana;fontSize=12;strokeColor=#9673a6;" parent="1" vertex="1">
          <mxGeometry x="435" y="-210" width="160" height="84" as="geometry" />
        </mxCell>
        <mxCell id="h8cdzkuJ3-BCi8xMZ_TN-14" value="&lt;font color=&quot;#ffffff&quot;&gt;&lt;b&gt;Library&lt;/b&gt;&lt;/font&gt;" style="swimlane;html=1;fontStyle=0;childLayout=stackLayout;horizontal=1;startSize=26;fillColor=#8e0b32;horizontalStack=0;resizeParent=1;resizeLast=0;collapsible=1;marginBottom=0;swimlaneFillColor=#ffffff;align=center;rounded=1;shadow=0;comic=0;labelBackgroundColor=none;strokeWidth=1;fontFamily=Verdana;fontSize=12;strokeColor=#9673a6;" parent="1" vertex="1">
          <mxGeometry x="685" y="-252" width="160" height="84" as="geometry" />
        </mxCell>
        <mxCell id="h8cdzkuJ3-BCi8xMZ_TN-15" value="&lt;font color=&quot;#ffffff&quot;&gt;&lt;b&gt;Map&lt;/b&gt;&lt;/font&gt;" style="swimlane;html=1;fontStyle=0;childLayout=stackLayout;horizontal=1;startSize=26;fillColor=#8e0b32;horizontalStack=0;resizeParent=1;resizeLast=0;collapsible=1;marginBottom=0;swimlaneFillColor=#ffffff;align=center;rounded=1;shadow=0;comic=0;labelBackgroundColor=none;strokeWidth=1;fontFamily=Verdana;fontSize=12;strokeColor=#9673a6;" parent="1" vertex="1">
          <mxGeometry x="675" y="-436" width="160" height="84" as="geometry" />
        </mxCell>
        <mxCell id="h8cdzkuJ3-BCi8xMZ_TN-18" value="&lt;font color=&quot;#ffffff&quot;&gt;&lt;b&gt;CourseMenu&lt;/b&gt;&lt;/font&gt;" style="swimlane;html=1;fontStyle=0;childLayout=stackLayout;horizontal=1;startSize=26;fillColor=#8e0b32;horizontalStack=0;resizeParent=1;resizeLast=0;collapsible=1;marginBottom=0;swimlaneFillColor=#ffffff;align=center;rounded=1;shadow=0;comic=0;labelBackgroundColor=none;strokeWidth=1;fontFamily=Verdana;fontSize=12;strokeColor=#9673a6;" parent="1" vertex="1">
          <mxGeometry x="465" y="-720" width="160" height="84" as="geometry" />
        </mxCell>
        <mxCell id="h8cdzkuJ3-BCi8xMZ_TN-19" value="&lt;font color=&quot;#ffffff&quot;&gt;&lt;b&gt;News&lt;/b&gt;&lt;/font&gt;" style="swimlane;html=1;fontStyle=0;childLayout=stackLayout;horizontal=1;startSize=26;fillColor=#8e0b32;horizontalStack=0;resizeParent=1;resizeLast=0;collapsible=1;marginBottom=0;swimlaneFillColor=#ffffff;align=center;rounded=1;shadow=0;comic=0;labelBackgroundColor=none;strokeWidth=1;fontFamily=Verdana;fontSize=12;strokeColor=#9673a6;" parent="1" vertex="1">
          <mxGeometry x="254.94" y="-276" width="160" height="84" as="geometry" />
        </mxCell>
        <mxCell id="h8cdzkuJ3-BCi8xMZ_TN-30" value="&lt;font color=&quot;#ffffff&quot;&gt;&lt;b&gt;Announcement&lt;/b&gt;&lt;/font&gt;" style="swimlane;html=1;fontStyle=0;childLayout=stackLayout;horizontal=1;startSize=26;fillColor=#8e0b32;horizontalStack=0;resizeParent=1;resizeLast=0;collapsible=1;marginBottom=0;swimlaneFillColor=#ffffff;align=center;rounded=1;shadow=0;comic=0;labelBackgroundColor=none;strokeWidth=1;fontFamily=Verdana;fontSize=12;strokeColor=#9673a6;" parent="1" vertex="1">
          <mxGeometry x="34.94" y="-330" width="160" height="84" as="geometry" />
        </mxCell>
        <mxCell id="h8cdzkuJ3-BCi8xMZ_TN-31" value="&lt;font color=&quot;#ffffff&quot;&gt;&lt;b&gt;Course&lt;/b&gt;&lt;/font&gt;" style="swimlane;html=1;fontStyle=0;childLayout=stackLayout;horizontal=1;startSize=26;fillColor=#8e0b32;horizontalStack=0;resizeParent=1;resizeLast=0;collapsible=1;marginBottom=0;swimlaneFillColor=#ffffff;align=center;rounded=1;shadow=0;comic=0;labelBackgroundColor=none;strokeWidth=1;fontFamily=Verdana;fontSize=12;strokeColor=#9673a6;" parent="1" vertex="1">
          <mxGeometry x="595" y="-850" width="160" height="84" as="geometry" />
        </mxCell>
        <mxCell id="h8cdzkuJ3-BCi8xMZ_TN-32" value="&lt;font color=&quot;#ffffff&quot;&gt;&lt;b&gt;Calendar&lt;/b&gt;&lt;/font&gt;" style="swimlane;html=1;fontStyle=0;childLayout=stackLayout;horizontal=1;startSize=26;fillColor=#8e0b32;horizontalStack=0;resizeParent=1;resizeLast=0;collapsible=1;marginBottom=0;swimlaneFillColor=#ffffff;align=center;rounded=1;shadow=0;comic=0;labelBackgroundColor=none;strokeWidth=1;fontFamily=Verdana;fontSize=12;strokeColor=#9673a6;" parent="1" vertex="1">
          <mxGeometry x="345" y="-850" width="160" height="84" as="geometry" />
        </mxCell>
        <mxCell id="h8cdzkuJ3-BCi8xMZ_TN-33" value="&lt;font color=&quot;#ffffff&quot;&gt;&lt;b&gt;Bus&lt;/b&gt;&lt;/font&gt;" style="swimlane;html=1;fontStyle=0;childLayout=stackLayout;horizontal=1;startSize=26;fillColor=#8e0b32;horizontalStack=0;resizeParent=1;resizeLast=0;collapsible=1;marginBottom=0;swimlaneFillColor=#ffffff;align=center;rounded=1;shadow=0;comic=0;labelBackgroundColor=none;strokeWidth=1;fontFamily=Verdana;fontSize=12;strokeColor=#9673a6;" parent="1" vertex="1">
          <mxGeometry x="295.06" y="-95" width="160" height="84" as="geometry" />
        </mxCell>
        <mxCell id="h8cdzkuJ3-BCi8xMZ_TN-34" value="&lt;font color=&quot;#ffffff&quot;&gt;&lt;b&gt;Train&lt;/b&gt;&lt;/font&gt;" style="swimlane;html=1;fontStyle=0;childLayout=stackLayout;horizontal=1;startSize=26;fillColor=#8e0b32;horizontalStack=0;resizeParent=1;resizeLast=0;collapsible=1;marginBottom=0;swimlaneFillColor=#ffffff;align=center;rounded=1;shadow=0;comic=0;labelBackgroundColor=none;strokeWidth=1;fontFamily=Verdana;fontSize=12;strokeColor=#9673a6;" parent="1" vertex="1">
          <mxGeometry x="575.06" y="-95" width="160" height="84" as="geometry" />
        </mxCell>
        <mxCell id="h8cdzkuJ3-BCi8xMZ_TN-35" value="&lt;font color=&quot;#ffffff&quot;&gt;&lt;b&gt;Event&lt;/b&gt;&lt;/font&gt;" style="swimlane;html=1;fontStyle=0;childLayout=stackLayout;horizontal=1;startSize=26;fillColor=#8e0b32;horizontalStack=0;resizeParent=1;resizeLast=0;collapsible=1;marginBottom=0;swimlaneFillColor=#ffffff;align=center;rounded=1;shadow=0;comic=0;labelBackgroundColor=none;strokeWidth=1;fontFamily=Verdana;fontSize=12;strokeColor=#9673a6;" parent="1" vertex="1">
          <mxGeometry x="34.94" y="-220" width="160" height="84" as="geometry" />
        </mxCell>
        <mxCell id="h8cdzkuJ3-BCi8xMZ_TN-41" value="&lt;font color=&quot;#ffffff&quot;&gt;&lt;b&gt;MemberCard&lt;/b&gt;&lt;/font&gt;" style="swimlane;html=1;fontStyle=0;childLayout=stackLayout;horizontal=1;startSize=26;fillColor=#8e0b32;horizontalStack=0;resizeParent=1;resizeLast=0;collapsible=1;marginBottom=0;swimlaneFillColor=#ffffff;align=center;rounded=1;shadow=0;comic=0;labelBackgroundColor=none;strokeWidth=1;fontFamily=Verdana;fontSize=12;strokeColor=#9673a6;" parent="1" vertex="1">
          <mxGeometry x="875" y="-316" width="160" height="84" as="geometry" />
        </mxCell>
        <mxCell id="h8cdzkuJ3-BCi8xMZ_TN-55" value="&lt;font color=&quot;#ffffff&quot;&gt;&lt;b&gt;Book&lt;/b&gt;&lt;/font&gt;" style="swimlane;html=1;fontStyle=0;childLayout=stackLayout;horizontal=1;startSize=26;fillColor=#8e0b32;horizontalStack=0;resizeParent=1;resizeLast=0;collapsible=1;marginBottom=0;swimlaneFillColor=#ffffff;align=center;rounded=1;shadow=0;comic=0;labelBackgroundColor=none;strokeWidth=1;fontFamily=Verdana;fontSize=12;strokeColor=#9673a6;" parent="1" vertex="1">
          <mxGeometry x="885" y="-196" width="160" height="84" as="geometry" />
        </mxCell>
        <mxCell id="h8cdzkuJ3-BCi8xMZ_TN-57" value="&lt;font color=&quot;#ffffff&quot;&gt;&lt;b&gt;Building&lt;/b&gt;&lt;/font&gt;" style="swimlane;html=1;fontStyle=0;childLayout=stackLayout;horizontal=1;startSize=26;fillColor=#8e0b32;horizontalStack=0;resizeParent=1;resizeLast=0;collapsible=1;marginBottom=0;swimlaneFillColor=#ffffff;align=center;rounded=1;shadow=0;comic=0;labelBackgroundColor=none;strokeWidth=1;fontFamily=Verdana;fontSize=12;strokeColor=#9673a6;" parent="1" vertex="1">
          <mxGeometry x="885" y="-436" width="160" height="84" as="geometry" />
        </mxCell>
        <mxCell id="0y7RblWS7trDj023ZmKN-32" value="" style="endArrow=diamondThin;endFill=0;endSize=24;html=1;rounded=0;" parent="h8cdzkuJ3-BCi8xMZ_TN-57" edge="1">
          <mxGeometry width="160" relative="1" as="geometry">
            <mxPoint x="-50" y="51.579999999999984" as="sourcePoint" />
            <mxPoint y="52" as="targetPoint" />
          </mxGeometry>
        </mxCell>
        <mxCell id="h8cdzkuJ3-BCi8xMZ_TN-65" value="&lt;font color=&quot;#ffffff&quot;&gt;&lt;b&gt;Today&lt;/b&gt;&lt;/font&gt;" style="swimlane;html=1;fontStyle=0;childLayout=stackLayout;horizontal=1;startSize=26;fillColor=#8e0b32;horizontalStack=0;resizeParent=1;resizeLast=0;collapsible=1;marginBottom=0;swimlaneFillColor=#ffffff;align=center;rounded=1;shadow=0;comic=0;labelBackgroundColor=none;strokeWidth=1;fontFamily=Verdana;fontSize=12;strokeColor=#9673a6;" parent="1" vertex="1">
          <mxGeometry x="64.94" y="-546" width="160" height="84" as="geometry" />
        </mxCell>
        <mxCell id="h8cdzkuJ3-BCi8xMZ_TN-66" value="&lt;font color=&quot;#ffffff&quot;&gt;&lt;b&gt;Week&lt;/b&gt;&lt;/font&gt;" style="swimlane;html=1;fontStyle=0;childLayout=stackLayout;horizontal=1;startSize=26;fillColor=#8e0b32;horizontalStack=0;resizeParent=1;resizeLast=0;collapsible=1;marginBottom=0;swimlaneFillColor=#ffffff;align=center;rounded=1;shadow=0;comic=0;labelBackgroundColor=none;strokeWidth=1;fontFamily=Verdana;fontSize=12;strokeColor=#9673a6;" parent="1" vertex="1">
          <mxGeometry x="54.94" y="-656" width="160" height="84" as="geometry" />
        </mxCell>
        <mxCell id="h8cdzkuJ3-BCi8xMZ_TN-67" value="&lt;font color=&quot;#ffffff&quot;&gt;&lt;b&gt;Month&lt;/b&gt;&lt;/font&gt;" style="swimlane;html=1;fontStyle=0;childLayout=stackLayout;horizontal=1;startSize=26;fillColor=#8e0b32;horizontalStack=0;resizeParent=1;resizeLast=0;collapsible=1;marginBottom=0;swimlaneFillColor=#ffffff;align=center;rounded=1;shadow=0;comic=0;labelBackgroundColor=none;strokeWidth=1;fontFamily=Verdana;fontSize=12;strokeColor=#9673a6;" parent="1" vertex="1">
          <mxGeometry x="94.94" y="-756" width="160" height="84" as="geometry" />
        </mxCell>
        <mxCell id="h8cdzkuJ3-BCi8xMZ_TN-69" value="&lt;font color=&quot;#ffffff&quot;&gt;&lt;b&gt;Menu&lt;/b&gt;&lt;/font&gt;" style="swimlane;html=1;fontStyle=0;childLayout=stackLayout;horizontal=1;startSize=26;fillColor=#8e0b32;horizontalStack=0;resizeParent=1;resizeLast=0;collapsible=1;marginBottom=0;swimlaneFillColor=#ffffff;align=center;rounded=1;shadow=0;comic=0;labelBackgroundColor=none;strokeWidth=1;fontFamily=Verdana;fontSize=12;strokeColor=#9673a6;" parent="1" vertex="1">
          <mxGeometry x="265" y="-510" width="160" height="84" as="geometry" />
        </mxCell>
        <mxCell id="h8cdzkuJ3-BCi8xMZ_TN-78" value="&lt;font color=&quot;#ffffff&quot;&gt;&lt;b&gt;Language&lt;/b&gt;&lt;/font&gt;" style="swimlane;html=1;fontStyle=0;childLayout=stackLayout;horizontal=1;startSize=26;fillColor=#8e0b32;horizontalStack=0;resizeParent=1;resizeLast=0;collapsible=1;marginBottom=0;swimlaneFillColor=#ffffff;align=center;rounded=1;shadow=0;comic=0;labelBackgroundColor=none;strokeWidth=1;fontFamily=Verdana;fontSize=12;strokeColor=#9673a6;" parent="1" vertex="1">
          <mxGeometry x="935" y="-566" width="160" height="84" as="geometry" />
        </mxCell>
        <mxCell id="0y7RblWS7trDj023ZmKN-3" value="" style="endArrow=diamondThin;endFill=0;endSize=24;html=1;rounded=0;exitX=0.5;exitY=1;exitDx=0;exitDy=0;" parent="1" source="h8cdzkuJ3-BCi8xMZ_TN-14" edge="1">
          <mxGeometry width="160" relative="1" as="geometry">
            <mxPoint x="725" y="-142" as="sourcePoint" />
            <mxPoint x="885" y="-142" as="targetPoint" />
            <Array as="points">
              <mxPoint x="765" y="-142" />
              <mxPoint x="795" y="-142" />
              <mxPoint x="825" y="-142" />
            </Array>
          </mxGeometry>
        </mxCell>
        <mxCell id="0y7RblWS7trDj023ZmKN-5" value="" style="endArrow=diamondThin;endFill=0;endSize=24;html=1;rounded=0;entryX=0.5;entryY=1;entryDx=0;entryDy=0;" parent="1" target="h8cdzkuJ3-BCi8xMZ_TN-31" edge="1">
          <mxGeometry width="160" relative="1" as="geometry">
            <mxPoint x="625" y="-706" as="sourcePoint" />
            <mxPoint x="785" y="-516" as="targetPoint" />
            <Array as="points">
              <mxPoint x="625" y="-706" />
              <mxPoint x="675" y="-706" />
            </Array>
          </mxGeometry>
        </mxCell>
        <mxCell id="0y7RblWS7trDj023ZmKN-7" value="" style="endArrow=open;endSize=12;dashed=1;html=1;rounded=0;exitX=0;exitY=0.5;exitDx=0;exitDy=0;entryX=1;entryY=0.5;entryDx=0;entryDy=0;" parent="1" source="h8cdzkuJ3-BCi8xMZ_TN-31" target="h8cdzkuJ3-BCi8xMZ_TN-32" edge="1">
          <mxGeometry width="160" relative="1" as="geometry">
            <mxPoint x="475" y="-756" as="sourcePoint" />
            <mxPoint x="635" y="-756" as="targetPoint" />
          </mxGeometry>
        </mxCell>
        <mxCell id="0y7RblWS7trDj023ZmKN-8" value="" style="endArrow=diamondThin;endFill=1;endSize=24;html=1;rounded=0;entryX=0.5;entryY=1;entryDx=0;entryDy=0;exitX=-0.006;exitY=0.169;exitDx=0;exitDy=0;exitPerimeter=0;" parent="1" source="h8cdzkuJ3-BCi8xMZ_TN-18" target="h8cdzkuJ3-BCi8xMZ_TN-32" edge="1">
          <mxGeometry width="160" relative="1" as="geometry">
            <mxPoint x="535" y="-676" as="sourcePoint" />
            <mxPoint x="695" y="-676" as="targetPoint" />
            <Array as="points">
              <mxPoint x="425" y="-706" />
            </Array>
          </mxGeometry>
        </mxCell>
        <mxCell id="0y7RblWS7trDj023ZmKN-9" value="" style="endArrow=diamondThin;endFill=0;endSize=24;html=1;rounded=0;" parent="1" edge="1">
          <mxGeometry width="160" relative="1" as="geometry">
            <mxPoint x="285" y="-596" as="sourcePoint" />
            <mxPoint x="215" y="-636" as="targetPoint" />
            <Array as="points">
              <mxPoint x="255" y="-596" />
              <mxPoint x="255" y="-636" />
            </Array>
          </mxGeometry>
        </mxCell>
        <mxCell id="0y7RblWS7trDj023ZmKN-10" value="" style="endArrow=diamondThin;endFill=0;endSize=24;html=1;rounded=0;exitX=0.439;exitY=-0.006;exitDx=0;exitDy=0;exitPerimeter=0;" parent="1" source="h8cdzkuJ3-BCi8xMZ_TN-12" edge="1">
          <mxGeometry width="160" relative="1" as="geometry">
            <mxPoint x="275" y="-656" as="sourcePoint" />
            <mxPoint x="255" y="-716" as="targetPoint" />
            <Array as="points">
              <mxPoint x="355" y="-716" />
            </Array>
          </mxGeometry>
        </mxCell>
        <mxCell id="0y7RblWS7trDj023ZmKN-11" value="" style="endArrow=diamondThin;endFill=0;endSize=24;html=1;rounded=0;exitX=0;exitY=0.75;exitDx=0;exitDy=0;" parent="1" source="h8cdzkuJ3-BCi8xMZ_TN-12" edge="1">
          <mxGeometry width="160" relative="1" as="geometry">
            <mxPoint x="225" y="-616" as="sourcePoint" />
            <mxPoint x="225" y="-516" as="targetPoint" />
            <Array as="points">
              <mxPoint x="265" y="-573" />
              <mxPoint x="265" y="-516" />
            </Array>
          </mxGeometry>
        </mxCell>
        <mxCell id="0y7RblWS7trDj023ZmKN-12" value="&lt;font color=&quot;#ffffff&quot;&gt;&lt;b&gt;Day&lt;/b&gt;&lt;/font&gt;" style="swimlane;html=1;fontStyle=0;childLayout=stackLayout;horizontal=1;startSize=26;fillColor=#8e0b32;horizontalStack=0;resizeParent=1;resizeLast=0;collapsible=1;marginBottom=0;swimlaneFillColor=#ffffff;align=center;rounded=1;shadow=0;comic=0;labelBackgroundColor=none;strokeWidth=1;fontFamily=Verdana;fontSize=12;strokeColor=#9673a6;" parent="1" vertex="1">
          <mxGeometry x="75" y="-426" width="160" height="84" as="geometry" />
        </mxCell>
        <mxCell id="0y7RblWS7trDj023ZmKN-13" value="" style="endArrow=diamondThin;endFill=1;endSize=24;html=1;rounded=0;" parent="1" edge="1">
          <mxGeometry width="160" relative="1" as="geometry">
            <mxPoint x="55" y="-606" as="sourcePoint" />
            <mxPoint x="75" y="-406" as="targetPoint" />
            <Array as="points">
              <mxPoint x="35" y="-606" />
              <mxPoint x="35" y="-406" />
            </Array>
          </mxGeometry>
        </mxCell>
        <mxCell id="0y7RblWS7trDj023ZmKN-14" value="" style="endArrow=diamondThin;endFill=1;endSize=24;html=1;rounded=0;exitX=0;exitY=0.5;exitDx=0;exitDy=0;" parent="1" source="h8cdzkuJ3-BCi8xMZ_TN-67" edge="1">
          <mxGeometry width="160" relative="1" as="geometry">
            <mxPoint x="55" y="-572" as="sourcePoint" />
            <mxPoint x="75" y="-372" as="targetPoint" />
            <Array as="points">
              <mxPoint x="25" y="-714" />
              <mxPoint x="25" y="-372" />
            </Array>
          </mxGeometry>
        </mxCell>
        <mxCell id="0y7RblWS7trDj023ZmKN-15" value="" style="endArrow=diamondThin;endFill=0;endSize=24;html=1;rounded=0;entryX=0.75;entryY=1;entryDx=0;entryDy=0;" parent="1" target="h8cdzkuJ3-BCi8xMZ_TN-69" edge="1">
          <mxGeometry width="160" relative="1" as="geometry">
            <mxPoint x="235" y="-376" as="sourcePoint" />
            <mxPoint x="414.94" y="-376" as="targetPoint" />
            <Array as="points">
              <mxPoint x="385" y="-376" />
            </Array>
          </mxGeometry>
        </mxCell>
        <mxCell id="0y7RblWS7trDj023ZmKN-16" value="" style="endArrow=diamondThin;endFill=0;endSize=24;html=1;rounded=0;entryX=0.75;entryY=1;entryDx=0;entryDy=0;exitX=0.5;exitY=1;exitDx=0;exitDy=0;" parent="1" source="h8cdzkuJ3-BCi8xMZ_TN-65" edge="1">
          <mxGeometry width="160" relative="1" as="geometry">
            <mxPoint x="115" y="-396" as="sourcePoint" />
            <mxPoint x="265" y="-446" as="targetPoint" />
            <Array as="points">
              <mxPoint x="145" y="-446" />
              <mxPoint x="205" y="-446" />
            </Array>
          </mxGeometry>
        </mxCell>
        <mxCell id="0y7RblWS7trDj023ZmKN-17" value="" style="endArrow=diamondThin;endFill=0;endSize=24;html=1;rounded=0;" parent="1" source="h8cdzkuJ3-BCi8xMZ_TN-19" edge="1">
          <mxGeometry width="160" relative="1" as="geometry">
            <mxPoint x="354.94" y="-238" as="sourcePoint" />
            <mxPoint x="194.94" y="-298" as="targetPoint" />
            <Array as="points">
              <mxPoint x="334.94" y="-298" />
            </Array>
          </mxGeometry>
        </mxCell>
        <mxCell id="0y7RblWS7trDj023ZmKN-19" value="" style="endArrow=diamondThin;endFill=0;endSize=24;html=1;rounded=0;exitX=0.5;exitY=1;exitDx=0;exitDy=0;" parent="1" source="h8cdzkuJ3-BCi8xMZ_TN-19" edge="1">
          <mxGeometry width="160" relative="1" as="geometry">
            <mxPoint x="334.94" y="-146" as="sourcePoint" />
            <mxPoint x="194.94" y="-168" as="targetPoint" />
            <Array as="points">
              <mxPoint x="334.94" y="-168" />
            </Array>
          </mxGeometry>
        </mxCell>
        <mxCell id="0y7RblWS7trDj023ZmKN-20" value="&lt;font color=&quot;#ffffff&quot;&gt;&lt;b&gt;BusRoute&lt;/b&gt;&lt;/font&gt;" style="swimlane;html=1;fontStyle=0;childLayout=stackLayout;horizontal=1;startSize=26;fillColor=#8e0b32;horizontalStack=0;resizeParent=1;resizeLast=0;collapsible=1;marginBottom=0;swimlaneFillColor=#ffffff;align=center;rounded=1;shadow=0;comic=0;labelBackgroundColor=none;strokeWidth=1;fontFamily=Verdana;fontSize=12;strokeColor=#9673a6;" parent="1" vertex="1">
          <mxGeometry x="75" y="-95" width="160" height="84" as="geometry" />
        </mxCell>
        <mxCell id="0y7RblWS7trDj023ZmKN-21" value="" style="endArrow=diamondThin;endFill=0;endSize=24;html=1;rounded=0;" parent="1" edge="1">
          <mxGeometry width="160" relative="1" as="geometry">
            <mxPoint x="295.06" y="-50" as="sourcePoint" />
            <mxPoint x="235.06" y="-50" as="targetPoint" />
          </mxGeometry>
        </mxCell>
        <mxCell id="0y7RblWS7trDj023ZmKN-22" value="" style="endArrow=diamondThin;endFill=0;endSize=24;html=1;rounded=0;exitX=0.5;exitY=1;exitDx=0;exitDy=0;" parent="1" source="h8cdzkuJ3-BCi8xMZ_TN-13" edge="1">
          <mxGeometry width="160" relative="1" as="geometry">
            <mxPoint x="505.06" y="-130" as="sourcePoint" />
            <mxPoint x="455.06" y="-50" as="targetPoint" />
            <Array as="points">
              <mxPoint x="515.06" y="-50" />
            </Array>
          </mxGeometry>
        </mxCell>
        <mxCell id="0y7RblWS7trDj023ZmKN-25" value="" style="endArrow=diamondThin;endFill=0;endSize=24;html=1;rounded=0;exitX=0.5;exitY=1;exitDx=0;exitDy=0;" parent="1" source="h8cdzkuJ3-BCi8xMZ_TN-13" edge="1">
          <mxGeometry width="160" relative="1" as="geometry">
            <mxPoint x="525.06" y="-116" as="sourcePoint" />
            <mxPoint x="575.06" y="-50" as="targetPoint" />
            <Array as="points">
              <mxPoint x="515.06" y="-50" />
            </Array>
          </mxGeometry>
        </mxCell>
        <mxCell id="0y7RblWS7trDj023ZmKN-28" value="" style="endArrow=diamondThin;endFill=0;endSize=24;html=1;rounded=0;exitX=0.75;exitY=0;exitDx=0;exitDy=0;" parent="1" source="h8cdzkuJ3-BCi8xMZ_TN-14" edge="1">
          <mxGeometry width="160" relative="1" as="geometry">
            <mxPoint x="725" y="-274.42" as="sourcePoint" />
            <mxPoint x="875" y="-274" as="targetPoint" />
            <Array as="points">
              <mxPoint x="805" y="-274" />
            </Array>
          </mxGeometry>
        </mxCell>
        <mxCell id="0y7RblWS7trDj023ZmKN-29" value="" style="endArrow=diamondThin;endFill=1;endSize=24;html=1;rounded=0;exitX=0.5;exitY=1;exitDx=0;exitDy=0;" parent="1" source="h8cdzkuJ3-BCi8xMZ_TN-5" edge="1">
          <mxGeometry width="160" relative="1" as="geometry">
            <mxPoint x="745" y="-468.34000000000003" as="sourcePoint" />
            <mxPoint x="1035" y="-286" as="targetPoint" />
            <Array as="points">
              <mxPoint x="775" y="-466" />
              <mxPoint x="1065" y="-466" />
              <mxPoint x="1065" y="-286" />
            </Array>
          </mxGeometry>
        </mxCell>
        <mxCell id="0y7RblWS7trDj023ZmKN-31" value="" style="endArrow=open;endSize=12;dashed=1;html=1;rounded=0;exitX=0.5;exitY=1;exitDx=0;exitDy=0;entryX=0.448;entryY=0.018;entryDx=0;entryDy=0;entryPerimeter=0;" parent="1" source="h8cdzkuJ3-BCi8xMZ_TN-15" target="h8cdzkuJ3-BCi8xMZ_TN-14" edge="1">
          <mxGeometry width="160" relative="1" as="geometry">
            <mxPoint x="685" y="-306" as="sourcePoint" />
            <mxPoint x="845" y="-306" as="targetPoint" />
            <Array as="points">
              <mxPoint x="755" y="-306" />
              <mxPoint x="755" y="-286" />
            </Array>
          </mxGeometry>
        </mxCell>
        <mxCell id="0y7RblWS7trDj023ZmKN-33" value="" style="endArrow=diamondThin;endFill=1;endSize=24;html=1;rounded=0;entryX=0.5;entryY=1;entryDx=0;entryDy=0;exitX=0.5;exitY=0;exitDx=0;exitDy=0;" parent="1" source="h8cdzkuJ3-BCi8xMZ_TN-5" target="h8cdzkuJ3-BCi8xMZ_TN-11" edge="1">
          <mxGeometry width="160" relative="1" as="geometry">
            <mxPoint x="735" y="-656" as="sourcePoint" />
            <mxPoint x="895" y="-656" as="targetPoint" />
            <Array as="points">
              <mxPoint x="775" y="-706" />
              <mxPoint x="875" y="-706" />
            </Array>
          </mxGeometry>
        </mxCell>
        <mxCell id="0y7RblWS7trDj023ZmKN-35" value="" style="endArrow=open;endSize=12;dashed=1;html=1;rounded=0;exitX=0;exitY=0.5;exitDx=0;exitDy=0;entryX=1;entryY=0.5;entryDx=0;entryDy=0;" parent="1" source="h8cdzkuJ3-BCi8xMZ_TN-78" target="h8cdzkuJ3-BCi8xMZ_TN-9" edge="1">
          <mxGeometry width="160" relative="1" as="geometry">
            <mxPoint x="693" y="-555" as="sourcePoint" />
            <mxPoint x="695" y="-453" as="targetPoint" />
            <Array as="points">
              <mxPoint x="695" y="-524" />
              <mxPoint x="695" y="-464" />
            </Array>
          </mxGeometry>
        </mxCell>
        <mxCell id="0y7RblWS7trDj023ZmKN-36" value="" style="endArrow=diamondThin;endFill=0;endSize=24;html=1;rounded=0;" parent="1" edge="1">
          <mxGeometry width="160" relative="1" as="geometry">
            <mxPoint x="855" y="-606" as="sourcePoint" />
            <mxPoint x="935" y="-666" as="targetPoint" />
            <Array as="points">
              <mxPoint x="885" y="-606" />
              <mxPoint x="885" y="-666" />
            </Array>
          </mxGeometry>
        </mxCell>
        <mxCell id="0y7RblWS7trDj023ZmKN-38" value="" style="endArrow=none;html=1;rounded=0;exitX=0.684;exitY=-0.002;exitDx=0;exitDy=0;exitPerimeter=0;" parent="1" source="h8cdzkuJ3-BCi8xMZ_TN-9" edge="1">
          <mxGeometry width="50" height="50" relative="1" as="geometry">
            <mxPoint x="645" y="-552" as="sourcePoint" />
            <mxPoint x="695" y="-602" as="targetPoint" />
            <Array as="points">
              <mxPoint x="595" y="-602" />
            </Array>
          </mxGeometry>
        </mxCell>
        <mxCell id="xNhacRvQgt7i7nkHDUnZ-1" value="" style="endArrow=diamondThin;endFill=0;endSize=24;html=1;rounded=0;entryX=0.5;entryY=0;entryDx=0;entryDy=0;exitX=0.5;exitY=1;exitDx=0;exitDy=0;" parent="1" source="h8cdzkuJ3-BCi8xMZ_TN-8" target="h8cdzkuJ3-BCi8xMZ_TN-78" edge="1">
          <mxGeometry width="160" relative="1" as="geometry">
            <mxPoint x="1005" y="-606" as="sourcePoint" />
            <mxPoint x="805" y="-546" as="targetPoint" />
          </mxGeometry>
        </mxCell>
      </root>
    </mxGraphModel>
  </diagram>
</mxfile>
